HIERARCHY
ROOT Hips
{
  OFFSET 5.84602e-005 68.8428 3.50346
  CHANNELS 6 Xposition Yposition Zposition Zrotation Xrotation Yrotation
  JOINT Spine
  {
    OFFSET 0 8.597 -4.6522
    CHANNELS 3 Zrotation Xrotation Yrotation
    JOINT Spine1
    {
      OFFSET 0 7.8454 0.4098
      CHANNELS 3 Zrotation Xrotation Yrotation
      JOINT Spine2
      {
        OFFSET 0 9.7078 -2.1609
        CHANNELS 3 Zrotation Xrotation Yrotation
        JOINT Neck
        {
          OFFSET 0 21.8761 -0.4549
          CHANNELS 3 Zrotation Xrotation Yrotation
          JOINT Head
          {
            OFFSET 0 12.3537 3.3602
            CHANNELS 3 Zrotation Xrotation Yrotation
            End Site
            {
              OFFSET 0.0001 18.9506 0.5657
            }
          }
        }
        JOINT LeftShoulder
        {
          OFFSET 2.2086 21.1115 7.2329
          CHANNELS 3 Zrotation Xrotation Yrotation
          JOINT LeftArm
          {
            OFFSET 13.1193 3.0282 -4.8998
            CHANNELS 3 Zrotation Xrotation Yrotation
            JOINT LeftForeArm
            {
              OFFSET 27.4081 -0.0973053 -0.2375
              CHANNELS 3 Zrotation Xrotation Yrotation
              JOINT LeftHand
              {
                OFFSET 22.8641 0.0662994 -0.1369
                CHANNELS 3 Zrotation Xrotation Yrotation
                JOINT LeftHandIndex1
                {
                  OFFSET 8.8614 0.775009 2.4612
                  CHANNELS 3 Zrotation Xrotation Yrotation
                  JOINT LeftHandIndex2
                  {
                    OFFSET 3.3146 -0.808304 0.5841
                    CHANNELS 3 Zrotation Xrotation Yrotation
                    JOINT LeftHandIndex3
                    {
                      OFFSET 2.2628 -0.552002 0.3989
                      CHANNELS 3 Zrotation Xrotation Yrotation
                      End Site
                      {
                        OFFSET 1.6102 -0.4807 0.2612
                      }
                    }
                  }
                }
                JOINT LeftHandMiddle1
                {
                  OFFSET 8.9937 0.895004 0.2143
                  CHANNELS 3 Zrotation Xrotation Yrotation
                  JOINT LeftHandMiddle2
                  {
                    OFFSET 4.0984 0.0113983 -0.0242
                    CHANNELS 3 Zrotation Xrotation Yrotation
                    JOINT LeftHandMiddle3
                    {
                      OFFSET 2.2716 0.00689697 -0.0138001
                      CHANNELS 3 Zrotation Xrotation Yrotation
                      End Site
                      {
                        OFFSET 2.0404 -0.1441 0.0027
                      }
                    }
                  }
                }
                JOINT LeftHandRing1
                {
                  OFFSET 8.5234 0.597198 -2.0164
                  CHANNELS 3 Zrotation Xrotation Yrotation
                  JOINT LeftHandRing2
                  {
                    OFFSET 3.7188 -0.188293 -0.2328
                    CHANNELS 3 Zrotation Xrotation Yrotation
                    JOINT LeftHandRing3
                    {
                      OFFSET 2.1191 -0.106598 -0.1332
                      CHANNELS 3 Zrotation Xrotation Yrotation
                      End Site
                      {
                        OFFSET 1.8737 -0.2304 -0.0886
                      }
                    }
                  }
                }
                JOINT LeftHandPinky1
                {
                  OFFSET 7.9094 -0.601089 -3.4825
                  CHANNELS 3 Zrotation Xrotation Yrotation
                  JOINT LeftHandPinky2
                  {
                    OFFSET 2.2874 -0.477005 -0.6314
                    CHANNELS 3 Zrotation Xrotation Yrotation
                    JOINT LeftHandPinky3
                    {
                      OFFSET 1.6774 -0.349396 -0.4633
                      CHANNELS 3 Zrotation Xrotation Yrotation
                      End Site
                      {
                        OFFSET 1.4888 -0.4091 -0.3416
                      }
                    }
                  }
                }
                JOINT LeftHandThumb1
                {
                  OFFSET 1.833 -1.3875 1.3896
                  CHANNELS 3 Zrotation Xrotation Yrotation
                  JOINT LeftHandThumb2
                  {
                    OFFSET 3.4129 -1.121 2.5732
                    CHANNELS 3 Zrotation Xrotation Yrotation
                    JOINT LeftHandThumb3
                    {
                      OFFSET 2.2474 -0.804199 1.6192
                      CHANNELS 3 Zrotation Xrotation Yrotation
                      End Site
                      {
                        OFFSET 1.6527 -0.5689 1.1317
                      }
                    }
                  }
                }
              }
            }
          }
        }
        JOINT RightShoulder
        {
          OFFSET -2.2086 21.1115 7.2329
          CHANNELS 3 Zrotation Xrotation Yrotation
          JOINT RightArm
          {
            OFFSET -13.1216 3.0287 -4.9007
            CHANNELS 3 Zrotation Xrotation Yrotation
            JOINT RightForeArm
            {
              OFFSET -27.4081 -0.0973053 -0.2375
              CHANNELS 3 Zrotation Xrotation Yrotation
              JOINT RightHand
              {
                OFFSET -22.8641 0.0664063 -0.1369
                CHANNELS 3 Zrotation Xrotation Yrotation
                JOINT RightHandIndex1
                {
                  OFFSET -8.8614 0.774994 2.4612
                  CHANNELS 3 Zrotation Xrotation Yrotation
                  JOINT RightHandIndex2
                  {
                    OFFSET -3.3146 -0.808304 0.5841
                    CHANNELS 3 Zrotation Xrotation Yrotation
                    JOINT RightHandIndex3
                    {
                      OFFSET -2.2628 -0.552002 0.3989
                      CHANNELS 3 Zrotation Xrotation Yrotation
                      End Site
                      {
                        OFFSET -1.6102 -0.4807 0.2612
                      }
                    }
                  }
                }
                JOINT RightHandMiddle1
                {
                  OFFSET -8.9937 0.894989 0.2143
                  CHANNELS 3 Zrotation Xrotation Yrotation
                  JOINT RightHandMiddle2
                  {
                    OFFSET -4.0984 0.0113983 -0.0242
                    CHANNELS 3 Zrotation Xrotation Yrotation
                    JOINT RightHandMiddle3
                    {
                      OFFSET -2.2716 0.00691223 -0.0138001
                      CHANNELS 3 Zrotation Xrotation Yrotation
                      End Site
                      {
                        OFFSET -2.0404 -0.1441 0.0027
                      }
                    }
                  }
                }
                JOINT RightHandRing1
                {
                  OFFSET -8.5234 0.597198 -2.0164
                  CHANNELS 3 Zrotation Xrotation Yrotation
                  JOINT RightHandRing2
                  {
                    OFFSET -3.7188 -0.188309 -0.2328
                    CHANNELS 3 Zrotation Xrotation Yrotation
                    JOINT RightHandRing3
                    {
                      OFFSET -2.1191 -0.106598 -0.1332
                      CHANNELS 3 Zrotation Xrotation Yrotation
                      End Site
                      {
                        OFFSET -1.8737 -0.2304 -0.0886
                      }
                    }
                  }
                }
                JOINT RightHandPinky1
                {
                  OFFSET -7.9094 -0.601105 -3.4825
                  CHANNELS 3 Zrotation Xrotation Yrotation
                  JOINT RightHandPinky2
                  {
                    OFFSET -2.2874 -0.477005 -0.6314
                    CHANNELS 3 Zrotation Xrotation Yrotation
                    JOINT RightHandPinky3
                    {
                      OFFSET -1.6774 -0.349396 -0.4633
                      CHANNELS 3 Zrotation Xrotation Yrotation
                      End Site
                      {
                        OFFSET -1.4888 -0.4091 -0.3416
                      }
                    }
                  }
                }
                JOINT RightHandThumb1
                {
                  OFFSET -1.833 -1.38751 1.3896
                  CHANNELS 3 Zrotation Xrotation Yrotation
                  JOINT RightHandThumb2
                  {
                    OFFSET -3.41299 -1.12099 2.5732
                    CHANNELS 3 Zrotation Xrotation Yrotation
                    JOINT RightHandThumb3
                    {
                      OFFSET -2.24741 -0.804108 1.6192
                      CHANNELS 3 Zrotation Xrotation Yrotation
                      End Site
                      {
                        OFFSET -1.6527 -0.5689 1.1317
                      }
                    }
                  }
                }
              }
            }
          }
        }
      }
    }
  }
  JOINT RightUpLeg
  {
    OFFSET -9.1966 3.8861 -0.7581
    CHANNELS 3 Zrotation Xrotation Yrotation
    JOINT RightLeg
    {
      OFFSET -0.7359 -41.0265 0
      CHANNELS 3 Zrotation Xrotation Yrotation
      JOINT RightFoot
      {
        OFFSET 0 -40.2855 0
        CHANNELS 3 Zrotation Xrotation Yrotation
        JOINT RightToeBase
        {
          OFFSET 0 -5.6122 11.7359
          CHANNELS 3 Zrotation Xrotation Yrotation
          End Site
          {
            OFFSET 0 0 7.8731
          }
        }
      }
    }
  }
  JOINT LeftUpLeg
  {
    OFFSET 9.1965 3.8864 -0.7581
    CHANNELS 3 Zrotation Xrotation Yrotation
    JOINT LeftLeg
    {
      OFFSET 0.7359 -41.0268 0
      CHANNELS 3 Zrotation Xrotation Yrotation
      JOINT LeftFoot
      {
        OFFSET 0 -40.2855 0
        CHANNELS 3 Zrotation Xrotation Yrotation
        JOINT LeftToeBase
        {
          OFFSET 0 -5.6122 11.7359
          CHANNELS 3 Zrotation Xrotation Yrotation
          End Site
          {
            OFFSET 0 0 7.8731
          }
        }
      }
    }
  }
}
MOTION
Frames:	5
Frame Time:	0.0333333
5.84602e-005 68.8428 3.50346 0 0 -0 0 0 -0 0 0 -0 0 0 -0 0 0 -0 0 0 -0 0 0 -0 0 0 -0 0 0 -0 0 0 -0 0 0 -0 0 0 -0 0 0 -0 0 0 -0 -0.0146107 -8.87603e-005 -2.63497e-007 2.99804e-018 -2.42657e-020 -1.42182e-022 0 0 -0 -0.0187562 -0.001176 5.858e-005 5.06224e-018 3.88251e-019 1.21329e-020 0 0 -0 -0.012269 -0.00324817 0.000675346 -1.74678e-018 3.88251e-019 -0 0 0 -0 0 0 -0 0 0 -0 0 0 -0 0 0 -0 0 0 -0 0 0 -0 0 0 -0 0 0 -0 0 0 -0 0 0 -0 0.0149955 -9.10982e-005 2.64101e-007 -9.69331e-018 1.21329e-020 -4.7394e-023 0 0 -0 0.0189956 -0.00119102 -5.96516e-005 -5.41541e-019 0 2.42657e-020 0 0 -0 0.0122698 -0.00324857 -0.000673756 -2.00796e-019 0 -1.94126e-019 0 0 -0 0 0 -0 0 0 -0 3.39842 1.33031 -0.0637918 -5.65207e-008 0.834868 -0.000436188 -3.39935 -2.16518 -0.0642563 -8.89002e-024 -1.18485e-023 -1.48106e-024 -3.39844 1.35642 0.0640283 -3.18788e-007 0.782166 -0.000588827 3.39931 -2.13858 0.0634662 1.1399e-023 0 -0 
1.44433 36.1615 2.19879 24.3265 -43.7892 3.14516e-007 -2.9702 3.83876 -1.22276 -5.87756 7.73506 -2.25169 -5.87755 7.73507 -2.25169 -13.2626 -0.341448 3.71017 -0.656929 -0.932337 14.2277 -2.19737 -1.07942 -8.59681 -38.971 -31.7084 -18.0191 -3.6864 31.6762 0.341911 -24.4607 -9.73849 28.0306 1.8487e-014 -2.38542e-015 -0 3.38831e-006 1.08262e-006 4.58485e-007 -9.54166e-015 0 -0 1.8487e-014 -2.38542e-015 -0 -0.0146048 -8.94209e-005 1.0135e-006 -7.81942e-007 -4.79927e-007 9.08576e-007 1.8487e-014 -2.38542e-015 -0 -0.0187649 -0.0011766 5.77053e-005 -4.57205e-015 -1.59028e-015 -0 1.8487e-014 -2.38542e-015 -0 -0.012285 -0.00325157 0.000676541 1.39149e-015 2.38542e-015 3.18055e-015 1.8487e-014 -2.38542e-015 -0 3.38831e-006 1.08262e-006 4.58485e-007 -9.54166e-015 0 -0 -5.26285 6.49075 -34.1837 3.57917 17.1601 13.0537 -29.4949 -18.2464 22.7352 -7.33869 -2.44389 3.06245 -3.67752e-015 -1.59028e-015 1.59028e-015 3.08116e-015 0 1.59028e-015 6.16232e-015 -1.59028e-015 1.59028e-015 -3.67752e-015 -1.59028e-015 1.59028e-015 0.0149494 -9.17443e-005 -1.88875e-007 6.4605e-015 -7.95139e-016 -3.18055e-015 -3.67752e-015 -1.59028e-015 1.59028e-015 0.0190308 -0.00119341 -6.08946e-005 4.96962e-016 -7.95139e-016 -0 -3.67752e-015 -1.59028e-015 1.59028e-015 0.0122235 -0.00323566 -0.000678624 5.26779e-015 -3.18055e-015 -1.59028e-015 -3.67752e-015 -1.59028e-015 1.59028e-015 3.08116e-015 0 1.59028e-015 6.16232e-015 -1.59028e-015 1.59028e-015 -13.1479 -34.0907 -18.4241 -1.38951 35.6762 0.317608 2.04882 4.55946 1.12396 -1.1615e-006 3.97249e-006 -1.54004e-006 3.09498 -49.5108 33.7485 4.86486 44.1463 -4.24098 3.85809 16.2405 -8.6409 -8.91422e-008 3.2727e-006 -6.715e-008 
-0.793149 7.26815 -1.62636 45.8365 -82.5084 7.74149e-006 -5.6365 7.02212 -2.48897 -11.088 14.251 -4.31506 -11.088 14.2511 -4.31509 -24.9355 -0.641167 6.96878 -0.85582 -1.62681 26.8171 -4.42099 -1.9708 -16.1993 -97.5121 -50.8602 -49.6105 -7.31233 60.3464 0.94654 -39.1633 -12.5489 53.8297 4.44326e-006 -1.56559e-006 3.34538e-006 -2.67985e-006 -1.23474e-006 -1.33293e-006 3.91459e-006 -1.44511e-006 2.4666e-007 4.44326e-006 -1.56559e-006 3.34538e-006 -0.0146262 -8.51841e-005 -4.07008e-006 4.44496e-006 -1.56601e-006 3.34517e-006 4.44326e-006 -1.56559e-006 3.34538e-006 -0.0187824 -0.00117498 4.81185e-005 4.44548e-006 -1.56601e-006 3.34507e-006 4.44326e-006 -1.56559e-006 3.34538e-006 -0.0122633 -0.00325 0.000672521 4.44477e-006 -1.5656e-006 3.345e-006 4.44326e-006 -1.56559e-006 3.34538e-006 -2.67985e-006 -1.23474e-006 -1.33293e-006 3.91459e-006 -1.44511e-006 2.4666e-007 -4.89674 6.42104 -64.6713 -0.464639 30.0921 27.4227 -43.4967 -27.2438 47.0186 -13.574 -4.5683 5.79268 -1.78906e-015 -3.18055e-015 1.59028e-015 -2.18663e-015 -7.95139e-016 -0 -1.98785e-016 0 -1.59028e-015 -1.78906e-015 -3.18055e-015 1.59028e-015 0.0150109 -9.14401e-005 7.38464e-007 7.95139e-016 0 3.18055e-015 -1.78906e-015 -3.18055e-015 1.59028e-015 0.0189825 -0.00119058 -5.87934e-005 -5.96354e-016 0 -0 -1.78906e-015 -3.18055e-015 1.59028e-015 0.0122877 -0.00325292 -0.000679106 -9.93923e-016 1.59028e-015 -0 -1.78906e-015 -3.18055e-015 1.59028e-015 -2.18663e-015 -7.95139e-016 -0 -1.98785e-016 0 -1.59028e-015 -58.6509 -55.023 -56.2659 -6.58982 67.5652 3.8947 6.85186 10.0546 2.27272 -1.39657e-006 2.18073e-006 -1.49842e-006 66.7923 -49.2117 103.95 37.4424 75.8134 -34.9283 9.36068 33.9295 -16.7845 5.60598e-007 3.50188e-009 1.58528e-006 
-2.14933 -3.89036 -3.76412 -126.326 -83.383 180 -6.60414 8.08907 -2.99123 -12.9721 16.4628 -5.09102 -12.9722 16.4628 -5.09101 -29.0858 -0.754823 8.03421 -0.792362 -1.87246 31.4129 -5.36698 -2.24766 -18.9396 -125.405 -52.7432 -65.9915 -9.08503 70.943 1.6468 -43.7473 -11.3115 63.0478 1.22918e-006 6.47925e-007 9.48805e-007 3.18055e-015 -2.38542e-015 4.77083e-015 1.22918e-006 6.47925e-007 9.48805e-007 1.22918e-006 6.47925e-007 9.48805e-007 -0.0146065 -8.08301e-005 1.98203e-006 1.22914e-006 6.47804e-007 9.48887e-007 1.22918e-006 6.47925e-007 9.48805e-007 -0.018755 -0.00118061 5.52127e-005 1.22914e-006 6.47766e-007 9.48899e-007 1.22918e-006 6.47925e-007 9.48805e-007 -0.0122556 -0.00324528 0.000678845 1.22918e-006 6.47808e-007 9.48841e-007 1.22918e-006 6.47925e-007 9.48805e-007 3.18055e-015 -2.38542e-015 4.77083e-015 1.22918e-006 6.47925e-007 9.48805e-007 -4.71994 4.45141 -75.4002 -3.83878 33.771 33.7417 -46.681 -27.6511 56.3549 -15.6005 -5.22737 6.84237 -1.59028e-015 1.59028e-015 -0 5.48311e-007 -7.76476e-007 2.88217e-009 -3.97569e-016 -1.59028e-015 -3.18055e-015 -1.59028e-015 1.59028e-015 -0 0.0149788 -9.11556e-005 2.11307e-006 -3.97569e-016 1.59028e-015 -0 -1.59028e-015 1.59028e-015 -0 0.0190249 -0.00119273 -5.69756e-005 3.97569e-016 -1.59028e-015 -3.18055e-015 -1.59028e-015 1.59028e-015 -0 0.0122668 -0.00324637 -0.000672723 -3.97569e-016 1.59028e-015 -0 -1.59028e-015 1.59028e-015 -0 5.48311e-007 -7.76476e-007 2.88217e-009 -3.97569e-016 -1.59028e-015 -3.18055e-015 -83.129 -55.7465 -76.2918 -14.3567 78.3587 10.7642 8.39641 12.5839 2.7016 1.71285e-006 1.64703e-006 -1.78848e-006 79.7754 -37.7799 114.819 97.5982 79.9303 -93.289 13.2788 39.8743 -21.2926 -2.82253e-007 6.53254e-006 -6.98873e-007 
-1.72813 -0.465774 -3.07619 -128.697 -87.6514 -180 -6.31004 7.6731 -2.83684 -12.4003 15.6066 -4.86446 -12.4002 15.6065 -4.86448 -27.6366 -0.732719 7.46154 -0.699002 -1.90388 30.0346 -5.23546 -2.11549 -18.0438 -116.691 -52.6462 -60.7438 -8.47921 67.729 1.3634 -42.2252 -11.3943 60.2422 1.92455e-006 -1.04211e-006 1.67889e-007 4.2632e-006 2.04766e-006 -8.01753e-007 0 0 -3.18055e-015 1.92455e-006 -1.04211e-006 1.67889e-007 -0.0146123 -8.1726e-005 -4.23155e-006 -3.18055e-015 -6.36111e-015 -7.95139e-016 1.92455e-006 -1.04211e-006 1.67889e-007 -0.01874 -0.0011798 5.61785e-005 -3.18055e-015 0 -1.59028e-015 1.92455e-006 -1.04211e-006 1.67889e-007 -0.0122575 -0.00324714 0.000683505 -3.18055e-015 4.77083e-015 -0 1.92455e-006 -1.04211e-006 1.67889e-007 4.2632e-006 2.04766e-006 -8.01753e-007 0 0 -3.18055e-015 -4.96739 5.15143 -71.9711 -2.70876 32.7334 31.7634 -45.7682 -27.7099 53.5554 -14.5901 -4.80684 6.62592 -1.05362e-007 -1.49652e-008 7.86424e-009 -1.05362e-007 -1.49652e-008 7.86423e-009 -1.05362e-007 -1.49652e-008 7.86423e-009 -1.05362e-007 -1.49652e-008 7.86424e-009 0.0150045 -9.15814e-005 -3.28369e-006 -1.05361e-007 -1.49642e-008 7.86628e-009 -1.05362e-007 -1.49652e-008 7.86424e-009 0.0190112 -0.00119243 -6.36483e-005 -9.88921e-008 -1.82705e-007 -2.19195e-007 -1.05362e-007 -1.49652e-008 7.86424e-009 0.0123 -0.00325536 -0.000680894 -1.05361e-007 -1.4965e-008 7.86883e-009 -1.05362e-007 -1.49652e-008 7.86424e-009 -1.05362e-007 -1.49652e-008 7.86423e-009 -1.05362e-007 -1.49652e-008 7.86423e-009 -75.6935 -56.0109 -70.2891 -10.8916 75.1627 7.60046 7.94806 11.7971 2.57057 -0 0 1.00014e-015 76.4814 -41.3982 112.466 75.478 80.0759 -71.7623 11.97 38.1158 -19.837 -2.34508e-007 -3.33484e-006 4.79034e-007 
